<?xml version="1.0" encoding="utf-8"?>
<!-- Generator: Adobe Illustrator 13.0.0, SVG Export Plug-In . SVG Version: 6.00 Build 14948)  -->
<!DOCTYPE svg PUBLIC "-//W3C//DTD SVG 1.1//EN" "http://www.w3.org/Graphics/SVG/1.1/DTD/svg11.dtd">
<svg version="1.1" id="Layer_1" xmlns="http://www.w3.org/2000/svg" xmlns:xlink="http://www.w3.org/1999/xlink" x="0px" y="0px"
	 width="95px" height="78px" viewBox="0 0 95 78" enable-background="new 0 0 95 78" xml:space="preserve">
<title>&apos;Logo&apos;</title>
<desc>Created using Figma</desc>
<g id="Vector">
	<g transform="translate(1148.95 -256)">
		<path id="path0_fill" fill="#FFFFFF" d="M90.91,9.035h-7.123V2.277c0.003-0.298-0.057-0.594-0.176-0.87
			c-0.119-0.276-0.294-0.527-0.516-0.739c-0.223-0.212-0.486-0.38-0.777-0.494C82.027,0.059,81.716,0,81.4,0H66.544
			c-6.981,0.007-13.702,2.516-18.809,7.021C42.627,2.516,35.907,0.007,28.925,0H14.069c-0.633,0-1.24,0.238-1.688,0.662
			c-0.448,0.423-0.699,0.998-0.699,1.597v6.776H4.559c-0.949,0-1.86,0.354-2.535,0.984c-0.676,0.63-1.062,1.488-1.074,2.386V66.02
			c0,0.906,0.38,1.774,1.057,2.415c0.677,0.64,1.595,1,2.552,1h23.698c2.003,0.004,3.983,0.409,5.81,1.187
			c1.826,0.779,3.458,1.914,4.789,3.331l0.334,0.335c0.432,0.422,0.898,0.812,1.394,1.165c0.2,0.136,0.401,0.271,0.582,0.38
			c0.441,0.274,0.9,0.521,1.375,0.74l0.239,0.108c0.249,0.118,0.506,0.217,0.764,0.308c0.328,0.115,0.663,0.215,1.002,0.298
			c0.229,0.063,0.535,0.145,0.897,0.208c0.517,0.097,1.04,0.16,1.566,0.189l0.726,0.018c0.789-0.001,1.576-0.076,2.349-0.225
			c0.305-0.055,0.553-0.118,0.697-0.163c0.397-0.093,0.789-0.208,1.174-0.344h0.105l0.602-0.243l0.229-0.1
			c0.51-0.232,1-0.498,1.471-0.795l0.496-0.326c0.553-0.392,1.07-0.827,1.547-1.301l0.076-0.072l0.191-0.207
			c1.315-1.405,2.934-2.527,4.744-3.293c1.813-0.765,3.775-1.154,5.758-1.145H90.91c0.479,0,0.953-0.09,1.395-0.265
			s0.842-0.431,1.178-0.754s0.602-0.706,0.779-1.127s0.266-0.87,0.258-1.323V12.405c-0.013-0.898-0.398-1.755-1.074-2.386
			C92.77,9.389,91.859,9.035,90.91,9.035z M16.456,4.518h12.47c3.065,0.002,6.1,0.588,8.921,1.723s5.373,2.795,7.501,4.882v5.773
			c0,0.599,0.251,1.174,0.699,1.597c0.448,0.424,1.055,0.662,1.688,0.662c0.632,0,1.24-0.238,1.688-0.662
			c0.447-0.423,0.698-0.998,0.698-1.597v-5.746c2.127-2.092,4.678-3.757,7.499-4.897c2.821-1.139,5.856-1.729,8.924-1.735h12.47
			v50.199h-12.47c-5.913,0.004-11.669,1.803-16.423,5.132v-8.72c0-0.599-0.251-1.173-0.698-1.597
			c-0.448-0.423-1.056-0.661-1.688-0.661c-0.633,0-1.24,0.238-1.688,0.661c-0.448,0.424-0.699,0.998-0.699,1.597v8.72
			c-4.753-3.329-10.509-5.128-16.422-5.132h-12.47V4.518z M52.91,71.07c-0.295,0.277-0.615,0.531-0.955,0.759l-0.287,0.189
			c-0.286,0.183-0.586,0.346-0.896,0.488l-0.163,0.072l-0.382,0.153c-0.234,0.082-0.473,0.152-0.716,0.208L49.1,73.031
			c-0.448,0.092-0.906,0.144-1.365,0.152h-0.411c-0.321-0.018-0.64-0.057-0.955-0.117c-0.201,0-0.363-0.081-0.554-0.135
			c-0.2-0.047-0.398-0.105-0.592-0.172l-0.411-0.172l-0.181-0.081c-0.291-0.134-0.571-0.284-0.84-0.452l-0.325-0.217
			c-0.306-0.219-0.593-0.461-0.859-0.723l-0.181-0.181c-1.78-1.892-3.963-3.405-6.405-4.442s-5.088-1.574-7.765-1.575H5.724V13.553
			h5.958v43.459c0,0.599,0.251,1.174,0.699,1.597c0.448,0.424,1.055,0.661,1.688,0.661h14.856c3.215,0.005,6.394,0.65,9.327,1.896
			c2.933,1.245,5.556,3.063,7.697,5.332c0.224,0.237,0.499,0.428,0.805,0.558c0.307,0.13,0.639,0.197,0.976,0.197
			s0.668-0.067,0.975-0.197s0.582-0.32,0.806-0.558c2.141-2.27,4.764-4.087,7.696-5.332c2.934-1.246,6.112-1.892,9.328-1.896H81.4
			c0.633,0,1.24-0.237,1.688-0.661c0.448-0.423,0.699-0.998,0.699-1.597V13.553h5.959v51.41H67.213
			c-2.672-0.018-5.316,0.508-7.756,1.54s-4.616,2.546-6.385,4.44L52.91,71.07z"/>
	</g>
</g>
<g id="Vector_1_">
	<g transform="translate(1177.82 -237.971)">
		<path id="path1_fill" fill="#96E6B3" d="M41.55,44.344c0.419,0.397,0.917,0.713,1.465,0.928s1.135,0.324,1.729,0.324
			s1.18-0.109,1.729-0.324c0.548-0.215,1.046-0.53,1.465-0.928L64.322,28.84c0.42-0.397,0.752-0.868,0.979-1.387
			c0.228-0.519,0.344-1.074,0.344-1.636c0-0.561-0.116-1.117-0.344-1.636c-0.227-0.519-0.559-0.99-0.979-1.386l-3.715-3.515
			c-0.419-0.397-0.917-0.712-1.465-0.927s-1.135-0.326-1.729-0.326c-0.593,0-1.181,0.111-1.729,0.326s-1.046,0.53-1.465,0.927
			l-9.481,8.972l-3.495-3.307c-0.419-0.397-0.917-0.712-1.465-0.927c-0.548-0.215-1.135-0.326-1.729-0.326
			c-0.593,0-1.18,0.111-1.729,0.326c-0.548,0.215-1.046,0.529-1.465,0.927l-3.714,3.515c-0.419,0.396-0.752,0.868-0.979,1.386
			c-0.227,0.519-0.344,1.074-0.344,1.636c0,0.561,0.117,1.117,0.344,1.636c0.227,0.519,0.56,0.99,0.979,1.387L41.55,44.344z
			 M38.056,28.325l4.994,4.725c0.456,0.41,1.061,0.639,1.69,0.639s1.234-0.229,1.69-0.639L57.41,22.651l3.351,3.171L44.739,40.983
			l-10.025-9.487L38.056,28.325z"/>
	</g>
</g>
</svg>
