<?xml version="1.0" encoding="utf-8"?>
<!-- Generator: Adobe Illustrator 13.0.0, SVG Export Plug-In . SVG Version: 6.00 Build 14948)  -->
<!DOCTYPE svg PUBLIC "-//W3C//DTD SVG 1.1//EN" "http://www.w3.org/Graphics/SVG/1.1/DTD/svg11.dtd">
<svg version="1.1" id="Layer_2" xmlns="http://www.w3.org/2000/svg" xmlns:xlink="http://www.w3.org/1999/xlink" x="0px" y="0px"
	 width="800px" height="600px" viewBox="0 0 800 600" enable-background="new 0 0 800 600" xml:space="preserve">
<g>
	<path fill="#E2CE3B" d="M321.398,387.727c22.596,128.047,78.336,79.838,78.336,79.838s55.738,48.209,76.828-79.838l152.151,54.235
		l19.406,23.21C679.63,417.698,698,360.748,698,299.5c0-165.686-134.314-300-300-300c-165.686,0-300,134.314-300,300
		c0,61.813,18.702,119.253,50.745,166.987l20.507-24.525L321.398,387.727z"/>
	<path fill="#917366" d="M577.494,241.597c0,141.606-78.332,319.363-174.744,319.363c-96.407,0-174.741-177.765-174.741-319.363
		c0-141.599,78.33-195.833,174.741-195.833C499.162,45.764,577.494,98.49,577.494,241.597z"/>
	<g>
		<g>
			<path fill="#EED2B5" d="M526.271,414.84l-25.607,161.189h-201.86L273.196,414.84c0,0,46.698-6.027,69.292-57.244
				c6.026-13.562,10.548-30.128,12.055-49.712h91.889c1.509,21.091,6.023,39.169,13.562,52.728
				C482.586,408.813,526.271,414.84,526.271,414.84z"/>
		</g>
	</g>
	<path fill="#E0B69D" d="M458.484,360.605c-16.569,18.078-36.154,28.621-57.243,28.621c-22.599,0-42.179-12.056-60.258-33.146
		c6.021-13.558,10.545-30.126,12.052-49.709h91.893C447.944,330.479,452.463,347.053,458.484,360.605z"/>
	<path fill="#EED2B5" d="M506.695,256.663c-18.079,61.765-57.243,119.01-103.945,119.01c-45.192,0-84.36-54.233-102.438-114.492
		c28.621-28.619,54.233-73.817,72.312-108.461C398.229,197.912,441.915,249.131,506.695,256.663z"/>
	<g>
		<path fill="#F1543F" d="M398,599.5c104.438,0,196.395-53.377,250.121-134.328l-19.406-23.21l-152.15-54.235
			c-21.091,128.047-76.829,79.838-76.829,79.838s-55.74,48.209-78.336-79.838l-152.146,54.235l-20.507,24.525
			C202.592,546.703,294.127,599.5,398,599.5z"/>
	</g>
	<g>
		<path fill="#FF7058" d="M476.563,389.23c0,0,0,54.232-76.828,79.843c0,0,43.686,24.103,55.738,48.202
			C455.474,515.771,491.63,463.046,476.563,389.23z"/>
		<path fill="#FF7058" d="M322.909,389.23c0,0,0,54.232,76.83,79.843c0,0-43.688,24.103-55.74,48.202
			C343.999,515.771,307.842,463.046,322.909,389.23z"/>
	</g>
</g>
</svg>
