<?xml version="1.0" encoding="utf-8"?>
<!-- Generator: Adobe Illustrator 13.0.0, SVG Export Plug-In . SVG Version: 6.00 Build 14948)  -->
<!DOCTYPE svg PUBLIC "-//W3C//DTD SVG 1.1//EN" "http://www.w3.org/Graphics/SVG/1.1/DTD/svg11.dtd">
<svg version="1.1" id="Layer_2" xmlns="http://www.w3.org/2000/svg" xmlns:xlink="http://www.w3.org/1999/xlink" x="0px" y="0px"
	 width="800px" height="600px" viewBox="0 0 800 600" enable-background="new 0 0 800 600" xml:space="preserve">
<g>
	<path fill="#009F9C" d="M321.398,387.726c22.596,128.047,78.336,79.838,78.336,79.838s55.739,48.209,76.829-79.838l152.151,54.236
		l19.406,23.21C679.63,417.698,698,360.748,698,299.5c0-165.686-134.314-300-300-300S98,133.814,98,299.5
		c0,61.813,18.702,119.253,50.745,166.987l20.507-24.525L321.398,387.726z"/>
	<g>
		<g>
			<path fill="#DAB18B" d="M526.272,414.84l-25.608,161.189h-201.86L273.196,414.84c0,0,46.698-6.027,69.292-57.245
				c6.027-13.561,10.548-30.127,12.055-49.711h91.889c1.508,21.09,6.023,39.169,13.561,52.728
				C482.586,408.813,526.272,414.84,526.272,414.84z"/>
		</g>
	</g>
	<path fill="#AD8875" d="M458.484,360.606c-16.569,18.077-36.154,28.62-57.243,28.62c-22.598,0-42.179-12.055-60.258-33.145
		c6.022-13.558,10.545-30.126,12.052-49.709h91.893C447.944,330.479,452.463,347.053,458.484,360.606z"/>
	<path fill="#DAB18B" d="M506.695,256.663c-18.079,61.765-57.243,119.01-103.945,119.01c-45.192,0-84.36-54.233-102.438-114.492
		C288.5,232.562,263.5,152.719,372.624,152.719C398.229,197.912,520.935,104.935,506.695,256.663z"/>
	<g>
		<path fill="#F4E9A6" d="M321.398,387.726l-152.146,54.236l-20.507,24.525C202.592,546.703,294.127,599.5,398,599.5
			c104.438,0,196.395-53.377,250.121-134.328l-19.406-23.21l-152.151-54.236C476.563,387.726,407.296,498.951,321.398,387.726z"/>
	</g>
</g>
<path fill="#24263B" d="M323.5,61.5c-10.888-3.579-23.567-2.217-33.897,1.948c13.193,42.804-51.159,60.419-35.08,85.806
	c-31.087,19.217-12.205,29.839-18.114,55.944c-4.516,19.953-26.303,39.948-25.642,60.523c0.38,11.827,13.378,4.655,15.709,14.466
	c11.28,47.477-2.634,105.768,44.266,137.577c-33.22,22.71,2.136,44.653,7.312,69.555c4.591,22.09-6.724,38.284,1.588,61.316
	c27.445,76.05,72.389,8.623,30.204,3.155c43.054-6.47,14.146-30.183,17.71-48.496c3.964-20.374,40.228-27.774-3.973-43.719
	c6.342-0.826,17.512-10.432,25.809-11.183c-7.268-18.639,9.106-20.373-4.883-35.481c2.15-1.004-21.739-30.358-19.212-30.61
	c0.356-6.932,6.19-0.543,7.361-7.017c2.295-0.425,11.809,8.418,13.607,6.981c20.542-9.434,3.668-35.266,5.451-36.516
	c-22.383-15.395-11.602-14.578-14.217-41.25c-3.918-39.963-17.261-78.608,6-109.454c0.613,3.794,0.314,8.751,0.351,12.455
	c1.184-6.107,5.817-15.189,6.826-23.476c3.035,1.133,1.902,6.63,6.843,5.317c2.453-13.328,7.702-18.862,13.055-30.516
	c0.861,3.916-0.593,8.541,0.025,12.52c1.268,1.515,7.975,0.082,8.726,1.329c2.938,17.218,16.001,18.461,30.226,8.207
	c14.642,12.328,34.152,3.049,50.859-4.278c1.646,0.043,17.174,3.803,25.18,3.997c-0.54,9.129,4.042,16.858,1.061,27.729
	c37.882,28.677-18.825,89.297-15.198,123.137c-38.515,21.61-3.143,61.921,0.047,83.034c0.197,1.31,8.947,12.744,8.648,18.971
	c-0.469,9.75,4.639,25.01,9.561,36.046c-11.481,12.604-8.387,21.135,6.687,29.206c-9.428,17.488-4.854,42.349,12.483,51.749
	c-2.164,2.107-5.623-0.298-7.315,2.782c43.433,18.577,64.86-8.052,71.029-42.308c6.354-35.282,0.287-22.654-12.754-52.176
	c-7.018-15.885,16.302-24.635-11.282-34.422c6.175-11.937,14.991-28.25,3.896-42.872c20.613-6.907,25.474-55.071,11.08-67.751
	c24.046-1.635,38.149-43.468,5.03-42.09c25.279-32.2,16.425-70.727,3.353-100.828c-1.831-4.217-19.206-29.632-23.123-36.021
	c-9.72-15.853-1.889-32.096-31.341-26.371c-5.383-19.086,4.08-46.63-20.824-49.071c-1.112-1.545,1.225-5.647-0.528-6.694
	c-23.036-1.011-47.479,1.043-70.541,4.69c-6.331-28.898-50.378-12.291-72.059-6.842"/>
</svg>
