<svg width="95" height="78" viewBox="0 0 95 78" version="1.1" xmlns="http://www.w3.org/2000/svg" xmlns:xlink="http://www.w3.org/1999/xlink">
<title>&#39;Logo&#39;</title>
<desc>Created using Figma</desc>
<g id="Canvas" transform="translate(-1148 256)">
<g id="&#39;Logo&#39;">
<g id="Vector">
<use xlink:href="#path0_fill" transform="translate(1148.95 -256)" fill="#171D1C"/>
</g>
<g id="Vector">
<use xlink:href="#path1_fill" transform="translate(1177.82 -237.971)" fill="#96E6B3"/>
</g>
</g>
</g>
<defs>
<path id="path0_fill" d="M 89.9605 9.03509L 82.8378 9.03509L 82.8378 2.27684C 82.8403 1.9787 82.7804 1.68303 82.6616 1.4069C 82.5427 1.13076 82.3673 0.879619 82.1454 0.667955C 81.9235 0.456291 81.6595 0.288293 81.3687 0.173651C 81.0778 0.0590089 80.7659 -9.53989e-06 80.4508 1.15664e-09L 65.5942 1.15664e-09C 58.6123 0.00732648 51.8922 2.5155 46.7848 7.02026C 41.6775 2.5155 34.9573 0.00732648 27.9754 1.15664e-09L 13.1188 1.15664e-09C 12.4858 1.15664e-09 11.8786 0.237977 11.431 0.661579C 10.9833 1.08518 10.7319 1.65971 10.7319 2.25877L 10.7319 9.03509L 3.60911 9.03509C 2.66013 9.03501 1.7493 9.38862 1.07382 10.0194C 0.398332 10.6501 0.0125527 11.5072 0 12.4052L 0 66.0194C 8.48026e-16 66.9252 0.380245 67.7939 1.05708 68.4343C 1.73393 69.0748 2.65192 69.4346 3.60911 69.4346L 27.3071 69.4346C 29.3102 69.4386 31.2899 69.8431 33.1163 70.6216C 34.9428 71.4002 36.5747 72.5351 37.9052 73.9522L 38.2394 74.2865C 38.6713 74.7088 39.1374 75.0985 39.6334 75.452C 39.8339 75.5875 40.0344 75.7231 40.2158 75.8315C 40.6565 76.1067 41.1158 76.3542 41.5907 76.5724L 41.8294 76.6808C 42.0777 76.7982 42.3355 76.8976 42.5933 76.988C 42.9216 77.1042 43.2563 77.2037 43.5958 77.2861C 43.825 77.3494 44.1305 77.4307 44.4933 77.4939C 45.0101 77.591 45.5332 77.6544 46.0592 77.6837L 46.7848 77.7018C 47.5737 77.7002 48.3605 77.6245 49.1336 77.4759C 49.4391 77.4217 49.6874 77.3584 49.8306 77.3132C 50.2287 77.2201 50.6208 77.1055 51.005 76.9699L 51.11 76.9699L 51.7115 76.726L 51.9407 76.6266C 52.4499 76.3945 52.9412 76.1288 53.4111 75.8315L 53.9076 75.5062C 54.4605 75.114 54.9779 74.6788 55.4543 74.2052L 55.5307 74.1329L 55.7217 73.9251C 57.0376 72.5207 58.6554 71.3984 60.4666 70.6334C 62.2779 69.8683 64.2409 69.4781 66.2244 69.4889L 89.9605 69.4889C 90.4393 69.4889 90.9134 69.3988 91.355 69.2238C 91.7967 69.0488 92.1971 68.7924 92.533 68.4695C 92.8689 68.1466 93.1335 67.7636 93.3115 67.343C 93.4895 66.9224 93.5772 66.4724 93.5696 66.0194L 93.5696 12.4052C 93.5571 11.5072 93.1713 10.6501 92.4958 10.0194C 91.8203 9.38862 90.9095 9.03501 89.9605 9.03509ZM 15.5058 4.51754L 27.9754 4.51754C 31.041 4.51959 34.0748 5.10539 36.8961 6.24006C 39.7175 7.37473 42.2687 9.03507 44.3978 11.1222L 44.3978 16.8956C 44.3978 17.4947 44.6493 18.0692 45.097 18.4928C 45.5446 18.9164 46.1517 19.1544 46.7848 19.1544C 47.4179 19.1544 48.025 18.9164 48.4727 18.4928C 48.9203 18.0692 49.1718 17.4947 49.1718 16.8956L 49.1718 11.1493C 51.2985 9.05726 53.8486 7.39191 56.6701 6.25253C 59.4915 5.11316 62.5266 4.5231 65.5942 4.51754L 78.0638 4.51754L 78.0638 54.7165L 65.5942 54.7165C 59.6808 54.7202 53.9246 56.519 49.1718 59.8484L 49.1718 51.1296C 49.1718 50.5305 48.9203 49.956 48.4727 49.5324C 48.025 49.1088 47.4179 48.8708 46.7848 48.8708C 46.1517 48.8708 45.5446 49.1088 45.097 49.5324C 44.6493 49.956 44.3978 50.5305 44.3978 51.1296L 44.3978 59.8484C 39.645 56.519 33.8888 54.7202 27.9754 54.7165L 15.5058 54.7165L 15.5058 4.51754ZM 51.9598 71.07C 51.6646 71.348 51.3453 71.6018 51.005 71.8289L 50.7186 72.0187C 50.432 72.2013 50.1321 72.3643 49.8211 72.5066L 49.6587 72.5789L 49.2768 72.7325C 49.0425 72.8147 48.8035 72.8841 48.5607 72.9403L 48.1502 73.0306C 47.7013 73.1232 47.2441 73.1747 46.7848 73.1842L 46.3743 73.1842C 46.0535 73.1657 45.7345 73.1264 45.4195 73.0667C 45.219 73.0667 45.0566 72.9854 44.8657 72.9312C 44.6652 72.8841 44.4676 72.8268 44.2737 72.7596L 43.8631 72.5879L 43.6817 72.5066C 43.3915 72.3736 43.1108 72.2227 42.8415 72.0548L 42.5169 71.838C 42.2109 71.6187 41.9236 71.377 41.6576 71.1152L 41.4762 70.9345C 39.6959 69.0433 37.5132 67.5295 35.0714 66.4925C 32.6295 65.4555 29.9836 64.9186 27.3071 64.9171L 4.77396 64.9171L 4.77396 13.5526L 10.7319 13.5526L 10.7319 57.0114C 10.7319 57.6105 10.9833 58.185 11.431 58.6086C 11.8786 59.0322 12.4858 59.2702 13.1188 59.2702L 27.9754 59.2702C 31.1906 59.2742 34.3688 59.9201 37.3023 61.1656C 40.2357 62.4111 42.8586 64.2282 44.9994 66.4982C 45.2233 66.7356 45.4976 66.9255 45.8045 67.0555C 46.1114 67.1856 46.4438 67.2528 46.78 67.2528C 47.1163 67.2528 47.4487 67.1856 47.7556 67.0555C 48.0624 66.9255 48.3368 66.7356 48.5607 66.4982C 50.7015 64.2282 53.3243 62.4111 56.2578 61.1656C 59.1913 59.9201 62.3694 59.2742 65.5847 59.2702L 80.4508 59.2702C 81.0838 59.2702 81.691 59.0322 82.1386 58.6086C 82.5863 58.185 82.8378 57.6105 82.8378 57.0114L 82.8378 13.5526L 88.7957 13.5526L 88.7957 64.9623L 66.2626 64.9623C 63.5909 64.9457 60.9465 65.471 58.5073 66.5027C 56.0682 67.5345 53.8909 69.0487 52.1221 70.9435L 51.9598 71.07Z"/>
<path id="path1_fill" d="M 11.7304 26.3154C 12.1497 26.7123 12.6476 27.0272 13.1956 27.242C 13.7436 27.4569 14.331 27.5674 14.9241 27.5674C 15.5173 27.5674 16.1046 27.4569 16.6526 27.242C 17.2006 27.0272 17.6985 26.7123 18.1179 26.3154L 34.5021 10.8112C 34.9216 10.4143 35.2544 9.94316 35.4814 9.4246C 35.7084 8.90604 35.8253 8.35024 35.8253 7.78894C 35.8253 7.22764 35.7084 6.67184 35.4814 6.15328C 35.2544 5.63472 34.9216 5.16356 34.5021 4.7667L 30.788 1.25206C 30.3686 0.855111 29.8707 0.540232 29.3227 0.325403C 28.7747 0.110573 28.1874 -6.78409e-07 27.5942 -6.78409e-07C 27.0011 -6.78409e-07 26.4137 0.110573 25.8657 0.325403C 25.3177 0.540232 24.8198 0.855111 24.4004 1.25206L 14.9194 10.2239L 11.4248 6.91706C 11.0054 6.52011 10.5075 6.20523 9.95954 5.9904C 9.41155 5.77557 8.8242 5.665 8.23104 5.665C 7.63788 5.665 7.05053 5.77557 6.50254 5.9904C 5.95455 6.20523 5.45664 6.52011 5.03726 6.91706L 1.32312 10.4317C 0.903646 10.8286 0.570895 11.2997 0.343871 11.8183C 0.116848 12.3368 -6.13124e-08 12.8926 -6.13124e-08 13.4539C -6.13124e-08 14.0152 0.116848 14.571 0.343871 15.0896C 0.570895 15.6082 0.903646 16.0793 1.32312 16.4762L 11.7304 26.3154ZM 8.23582 10.2962L 13.2294 15.0215C 13.6854 15.4315 14.2904 15.66 14.9194 15.66C 15.5483 15.66 16.1533 15.4315 16.6093 15.0215L 27.5895 4.62214L 30.9408 7.79346L 14.9194 22.9543L 4.89404 13.4675L 8.23582 10.2962Z"/>
</defs>
</svg>
