<svg xmlns:dc="http://purl.org/dc/elements/1.1/" xmlns:cc="http://creativecommons.org/ns#" xmlns:rdf="http://www.w3.org/1999/02/22-rdf-syntax-ns#" xmlns:svg="http://www.w3.org/2000/svg" xmlns="http://www.w3.org/2000/svg" xmlns:sodipodi="http://sodipodi.sourceforge.net/DTD/sodipodi-0.dtd" xmlns:inkscape="http://www.inkscape.org/namespaces/inkscape" version="1.1" x="0px" y="0px" viewBox="0 0 100 100"><g transform="translate(0,-952.36218)"><path style="text-indent:0;text-transform:none;direction:ltr;block-progression:tb;baseline-shift:baseline;color:#000000;enable-background:accumulate;" d="m 14.580234,966.94459 c -12.7736445,12.77392 -12.7736445,33.53731 0,46.31121 12.773644,12.7739 33.54051,12.7779 46.314154,0 12.773645,-12.774 12.773645,-33.54522 0,-46.31914 -12.773644,-12.77392 -33.54051,-12.77 -46.314154,0.004 z m 2.513019,2.51307 c 11.415507,-11.41576 29.87261,-11.41968 41.288116,-0.004 11.415507,11.41576 11.415507,29.87719 0,41.29297 -11.415506,11.4157 -29.872609,11.4118 -41.288116,-0 -11.4155073,-11.41571 -11.4155073,-29.86928 0,-41.28504 z" fill="#000000" fill-opacity="1" stroke="none" marker="none" visibility="visible" display="inline" overflow="visible"></path><rect style="" width="12.692801" height="44.170952" x="-679.75934" y="757.24738" transform="matrix(0.70709907,-0.70711449,0.70709907,0.70711449,0,0)" fill="#000000" stroke="none"></rect></g></svg>