<?xml version="1.0" encoding="utf-8"?>
<!-- Generator: Adobe Illustrator 13.0.0, SVG Export Plug-In . SVG Version: 6.00 Build 14948)  -->
<!DOCTYPE svg PUBLIC "-//W3C//DTD SVG 1.1//EN" "http://www.w3.org/Graphics/SVG/1.1/DTD/svg11.dtd">
<svg version="1.1" id="Layer_1" xmlns="http://www.w3.org/2000/svg" xmlns:xlink="http://www.w3.org/1999/xlink" x="0px" y="0px"
	 width="800px" height="600px" viewBox="0 0 800 600" enable-background="new 0 0 800 600" xml:space="preserve">
<circle fill="#66CC66" cx="400" cy="300" r="300"/>
<g>
	<path fill="#84DBFF" d="M401.417,428.504c-0.472,0-0.944,0.473-1.417,0.473s-0.945-0.473-1.417-0.473H401.417z"/>
	<path fill="#84DBFF" d="M632.913,488.977C578.11,556.535,494.016,600,400,600s-178.11-43.465-232.914-111.023
		c39.213-52.441,99.213-78.426,148.347-91.182c-3.78,31.182,12.283,72.756,12.756,71.812C344.725,431.811,400,428.504,400,428.504
		s55.275,3.307,71.339,41.103c0.472,0.944,17.008-40.63,12.756-71.812C533.701,410.551,594.173,436.535,632.913,488.977z"/>
</g>
<path fill="#C89E78" d="M467.559,368.504c0,0,0,0,0,0.473c0,4.725-2.361,34.961-66.142,59.055h-2.834
	c-63.78-24.094-66.142-54.33-66.142-59.055c0-0.473,0-0.473,0-0.473c0-6.142,1.417-12.283,2.834-18.426
	c18.426,23.15,40.63,38.74,64.725,38.74s46.299-15.59,64.725-38.74C466.142,356.221,467.559,362.362,467.559,368.504z"/>
<g>
	<path fill="#54C0EB" d="M467.559,368.504c0,0,3.308,34.016-67.559,60.473c0,0,55.275,3.307,71.339,41.103
		C472.283,471.023,503.938,388.818,467.559,368.504z"/>
	<path fill="#54C0EB" d="M332.441,368.504c-36.378,20.314-4.725,102.52-3.78,101.103C345.197,431.811,400,428.504,400,428.504
		C329.134,402.52,332.441,368.504,332.441,368.504z"/>
</g>
<g>
	<path fill="#C89E78" d="M499.213,248.977c-4.252,29.291-17.008,56.693-38.268,77.48c-4.252,4.252-8.032,7.559-12.756,10.865
		l-7.56-24.094h-81.26l-7.559,24.094c-15.118-11.338-46.772-42.992-47.245-72.755C291.338,94.96,421.26,130.866,421.26,130.866
		C508.661,124.725,505.827,201.732,499.213,248.977z"/>
	<path fill="#C89E78" d="M516.693,279.685c-6.614,10.866-15.591,18.425-24.095,21.26c3.307-7.56,6.142-15.591,8.504-23.623
		c0,0,0,0,0-0.472c1.89-7.087,3.779-14.173,5.669-21.26h-0.473c1.891-7.087,3.78-14.173,5.197-21.26c1.89,0,3.779,0.945,5.669,1.89
		C527.559,242.834,527.087,262.205,516.693,279.685z"/>
	<path fill="#C89E78" d="M307.401,300.945c-8.504-2.835-17.48-10.394-24.094-21.26c-10.866-17.48-10.866-36.851-0.473-42.992
		c5.666-5.193,11.721-0.945,12.666-0.945c5.669,22.205,1.98,38.74,3.397,42.047C301.26,285.354,304.095,293.386,307.401,300.945z"/>
</g>
<path fill="#171A1C" d="M298.897,277.323c17.48,58.111,56.221,111.496,101.103,111.496s83.622-53.385,101.103-111.496l0,0
	c0,0,0,0,0-0.472c1.89-7.087,3.779-14.173,5.196-21.26h-0.472c9.448-37.795,19.842-76.063,19.842-76.063
	c0-88.027-74.173-95.905-74.173-95.905C439.5,83.622,374.5,85.5,374.5,85.5c-86,15.118-87.613,62.387-87.613,62.387
	 M499.213,248.977c-4.252,29.291-17.008,56.693-38.268,77.48c-4.252,4.252-8.504,7.559-12.756,10.865l-7.56-23.621h-81.26
	l-7.559,24.094c-15.118-11.338-46.772-42.992-47.245-72.755C291.338,95.433,421.26,131.338,421.26,131.338
	C508.661,124.725,505.827,201.732,499.213,248.977z"/>
<path fill="#AD8875" d="M366.929,329.764c8.032,8.977,19.843,15.118,33.071,15.118s25.039-5.669,33.071-15.118H366.929z"/>
</svg>
